<?xml version="1.0" encoding="UTF-8" standalone="no"?>
<!-- Created with Inkscape (http://www.inkscape.org/) -->

<svg
   width="33.866665mm"
   height="33.866665mm"
   viewBox="0 0 33.866665 33.866665"
   version="1.1"
   id="svg1"
   inkscape:version="1.4.2 (f4327f4, 2025-05-13)"
   sodipodi:docname="slash.svg"
   xmlns:inkscape="http://www.inkscape.org/namespaces/inkscape"
   xmlns:sodipodi="http://sodipodi.sourceforge.net/DTD/sodipodi-0.dtd"
   xmlns="http://www.w3.org/2000/svg"
   xmlns:svg="http://www.w3.org/2000/svg">
  <sodipodi:namedview
     id="namedview1"
     pagecolor="#505050"
     bordercolor="#eeeeee"
     borderopacity="1"
     inkscape:showpageshadow="0"
     inkscape:pageopacity="0"
     inkscape:pagecheckerboard="0"
     inkscape:deskcolor="#505050"
     inkscape:document-units="mm"
     inkscape:zoom="3.700749"
     inkscape:cx="87.009413"
     inkscape:cy="45.531323"
     inkscape:window-width="1920"
     inkscape:window-height="1001"
     inkscape:window-x="-9"
     inkscape:window-y="-9"
     inkscape:window-maximized="1"
     inkscape:current-layer="layer1" />
  <defs
     id="defs1" />
  <g
     inkscape:label="Layer 1"
     inkscape:groupmode="layer"
     id="layer1">
    <path
       id="path2"
       style="fill:#ffffff;fill-opacity:1;stroke:none;stroke-width:0.79375"
       d="M 16.933333 0 A 16.933332 16.933332 0 0 0 9.7435913 1.6019694 A 12.88664 15.808578 0 0 1 12.886552 1.1249959 A 12.88664 15.808578 0 0 1 25.773104 16.933333 A 12.88664 15.808578 0 0 1 12.886552 32.741671 A 12.88664 15.808578 0 0 1 9.7435913 32.264697 A 16.933332 16.933332 0 0 0 16.933333 33.866667 A 16.933332 16.933332 0 0 0 33.866667 16.933333 A 16.933332 16.933332 0 0 0 16.933333 0 z " />
  </g>
</svg>
